<svg width="25" height="25" viewBox="0 0 25 25" fill="none" xmlns="http://www.w3.org/2000/svg">
<path d="M0.5 12.5C0.5 19.1274 5.87258 24.5 12.5 24.5C19.1274 24.5 24.5 19.1274 24.5 12.5C24.5 5.87258 19.1274 0.5 12.5 0.5C5.87258 0.5 0.5 5.87258 0.5 12.5Z" fill="#333333"/>
<path d="M12.5 6.5C9.188 6.5 6.5 9.188 6.5 12.5C6.5 15.812 9.188 18.5 12.5 18.5C15.8 18.5 18.5 15.812 18.5 12.5C18.5 9.188 15.8 6.5 12.5 6.5ZM16.46 9.26C17.18 10.136 17.6 11.24 17.624 12.452C17.456 12.416 15.764 12.08 14.06 12.284C14.024 12.2 13.988 12.104 13.952 12.02C13.844 11.768 13.736 11.516 13.616 11.276C15.488 10.52 16.352 9.404 16.46 9.26ZM12.5 7.388C13.796 7.388 14.996 7.88 15.896 8.672C15.8 8.804 15.032 9.836 13.208 10.52C12.368 8.972 11.432 7.712 11.3 7.52C11.684 7.436 12.08 7.388 12.5 7.388ZM10.316 7.868C10.448 8.048 11.36 9.32 12.212 10.832C9.812 11.468 7.7 11.456 7.472 11.456C7.82 9.86 8.888 8.54 10.316 7.868ZM7.376 12.512C7.376 12.464 7.376 12.404 7.376 12.356C7.592 12.368 10.088 12.392 12.644 11.624C12.788 11.912 12.932 12.2 13.064 12.5C13.004 12.524 12.932 12.536 12.86 12.56C10.22 13.412 8.816 15.74 8.696 15.932C7.868 15.02 7.376 13.82 7.376 12.512ZM12.5 17.624C11.312 17.624 10.22 17.216 9.356 16.544C9.452 16.352 10.484 14.348 13.376 13.34C13.388 13.328 13.4 13.328 13.412 13.328C14.132 15.2 14.432 16.76 14.504 17.216C13.892 17.48 13.208 17.624 12.5 17.624ZM15.356 16.748C15.308 16.436 15.032 14.936 14.36 13.1C15.968 12.848 17.372 13.268 17.552 13.316C17.324 14.744 16.508 15.98 15.356 16.748Z" fill="white"/>
</svg>
