<svg width="25" height="25" viewBox="0 0 25 25" fill="none" xmlns="http://www.w3.org/2000/svg">
<path d="M0.5 12.5C0.5 19.1274 5.87258 24.5 12.5 24.5C19.1274 24.5 24.5 19.1274 24.5 12.5C24.5 5.87258 19.1274 0.5 12.5 0.5C5.87258 0.5 0.5 5.87258 0.5 12.5Z" fill="#333333"/>
<path d="M18.5 12.5C18.5 9.2 15.8 6.5 12.5 6.5C9.2 6.5 6.5 9.2 6.5 12.5C6.5 15.5 8.675 17.975 11.525 18.425V14.225H10.025V12.5H11.525V11.15C11.525 9.65 12.425 8.825 13.775 8.825C14.45 8.825 15.125 8.975 15.125 8.975V10.475H14.375C13.625 10.475 13.4 10.925 13.4 11.375V12.5H15.05L14.75 14.225H13.325V18.5C16.325 18.05 18.5 15.5 18.5 12.5Z" fill="white"/>
</svg>
