<svg width="25" height="25" viewBox="0 0 25 25" fill="none" xmlns="http://www.w3.org/2000/svg">
<path d="M0.5 12.5C0.5 19.1274 5.87258 24.5 12.5 24.5C19.1274 24.5 24.5 19.1274 24.5 12.5C24.5 5.87258 19.1274 0.5 12.5 0.5C5.87258 0.5 0.5 5.87258 0.5 12.5Z" fill="#333333"/>
<path fill-rule="evenodd" clip-rule="evenodd" d="M12.4817 6.64404C9.1789 6.64404 6.5 9.32294 6.5 12.6257C6.5 15.2679 8.22477 17.5064 10.5734 18.3138C10.867 18.3505 10.9771 18.167 10.9771 18.0202C10.9771 17.8734 10.9771 17.5064 10.9771 16.9927C9.32569 17.3596 8.95872 16.1853 8.95872 16.1853C8.70183 15.4881 8.29817 15.3046 8.29817 15.3046C7.74771 14.9376 8.33486 14.9376 8.33486 14.9376C8.92202 14.9743 9.25229 15.5615 9.25229 15.5615C9.80275 16.4789 10.6468 16.222 10.9771 16.0752C11.0138 15.6716 11.1972 15.4147 11.344 15.2679C10.0229 15.1211 8.62844 14.6073 8.62844 12.2954C8.62844 11.6349 8.84862 11.1211 9.25229 10.6807C9.2156 10.5706 8.99541 9.9468 9.32569 9.13946C9.32569 9.13946 9.83945 8.99267 10.9771 9.76331C11.4541 9.61652 11.9679 9.57982 12.4817 9.57982C12.9954 9.57982 13.5092 9.65322 13.9862 9.76331C15.1239 8.99267 15.6376 9.13946 15.6376 9.13946C15.9679 9.9468 15.7477 10.5706 15.711 10.7174C16.078 11.1211 16.3349 11.6716 16.3349 12.3321C16.3349 14.644 14.9404 15.1211 13.6193 15.2679C13.8394 15.4514 14.0229 15.8184 14.0229 16.3688C14.0229 17.1762 14.0229 17.8 14.0229 18.0202C14.0229 18.167 14.133 18.3505 14.4266 18.3138C16.8119 17.5064 18.5 15.2679 18.5 12.6257C18.4633 9.32294 15.7844 6.64404 12.4817 6.64404Z" fill="white"/>
</svg>
