<svg width="24" height="24" viewBox="0 0 24 24" fill="none" xmlns="http://www.w3.org/2000/svg">
<path d="M20 17.5001C20.3852 17.5003 20.7556 17.6486 21.0344 17.9145C21.3132 18.1803 21.479 18.5432 21.4975 18.928C21.516 19.3127 21.3858 19.6899 21.1338 19.9813C20.8818 20.2726 20.5274 20.4559 20.144 20.4931L20 20.5001H4C3.61478 20.4999 3.24441 20.3515 2.96561 20.0857C2.68682 19.8198 2.52099 19.4569 2.50248 19.0721C2.48396 18.6874 2.61419 18.3102 2.86618 18.0189C3.11816 17.7275 3.47258 17.5442 3.856 17.5071L4 17.5001H20ZM20 10.5001C20.3978 10.5001 20.7794 10.6581 21.0607 10.9394C21.342 11.2207 21.5 11.6022 21.5 12.0001C21.5 12.3979 21.342 12.7794 21.0607 13.0607C20.7794 13.342 20.3978 13.5001 20 13.5001H4C3.60218 13.5001 3.22064 13.342 2.93934 13.0607C2.65804 12.7794 2.5 12.3979 2.5 12.0001C2.5 11.6022 2.65804 11.2207 2.93934 10.9394C3.22064 10.6581 3.60218 10.5001 4 10.5001H20ZM20 3.50006C20.3978 3.50006 20.7794 3.6581 21.0607 3.9394C21.342 4.22071 21.5 4.60224 21.5 5.00006C21.5 5.39789 21.342 5.77942 21.0607 6.06072C20.7794 6.34203 20.3978 6.50006 20 6.50006H4C3.60218 6.50006 3.22064 6.34203 2.93934 6.06072C2.65804 5.77942 2.5 5.39789 2.5 5.00006C2.5 4.60224 2.65804 4.22071 2.93934 3.9394C3.22064 3.6581 3.60218 3.50006 4 3.50006H20Z" fill="#9DFF50"/>
</svg>
