<svg width="25" height="25" viewBox="0 0 25 25" fill="none" xmlns="http://www.w3.org/2000/svg">
<path d="M0.5 12.5C0.5 19.1274 5.87258 24.5 12.5 24.5C19.1274 24.5 24.5 19.1274 24.5 12.5C24.5 5.87258 19.1274 0.5 12.5 0.5C5.87258 0.5 0.5 5.87258 0.5 12.5Z" fill="#333333"/>
<path d="M9.2 18.5H6.65V10.475H9.2V18.5ZM7.925 9.35C7.1 9.35 6.5 8.75 6.5 7.925C6.5 7.1 7.175 6.5 7.925 6.5C8.75 6.5 9.35 7.1 9.35 7.925C9.35 8.75 8.75 9.35 7.925 9.35ZM18.5 18.5H15.95V14.15C15.95 12.875 15.425 12.5 14.675 12.5C13.925 12.5 13.175 13.1 13.175 14.225V18.5H10.625V10.475H13.025V11.6C13.25 11.075 14.15 10.25 15.425 10.25C16.85 10.25 18.35 11.075 18.35 13.55V18.5H18.5Z" fill="white"/>
</svg>
